# xmcd
#
# Track frame offsets: 
#        150
#        13198
#        24192
#        36739
#        48662
#        61343
#        73714
#        86232
#        98054
#        109499
#        121798
#        134906
#        149029
#        162634
#        175257
#        186683
#        198016
#        208925
#        221019
#        234943
#        247020
#        260682
#        272985
#        286740
#        300041
#
# Disc length: 4197 seconds
#
# Revision: 3
# Processed by: cddbd v1.5.2PL0 Copyright (c) Steve Scherf et al.
# Submitted via: ExactAudioCopy v1.3
#
DISCID=8f106319
DTITLE=Various Artist - Steelin' It_The Steel Guitar Story_CD3
DYEAR=2008
DGENRE=Western Swing
TTITLE0=Charles Mitchell and HO - Mean Mama Blues
TTITLE1=Sons of the West - Panhandle Shuffle
TTITLE2=Sons of the West - Sally's Got a Wooden Leg
TTITLE3=Hi-Flyers - Juke Box Jump
TTITLE4=Leodie Jackson and His Western Swingsters - Steeling the Blues
TTITLE5=Leodie Jackson and His Western Swingsters - Double Crossin' Mama
TTITLE6=Spade Cooley and HO - Steel Guitar Rag
TTITLE7=Spade Cooley - Texas Steel Guitar
TTITLE8=Johnny Bond and His Red River Valley Boys - John's Other Wife
TTITLE9=Johnny Bond and His Red River Valley Boys - I Won't Stand in You
TTITLE9=r Way
TTITLE10=Ernest Tubb - So Round, So Firm, So Fully Packed
TTITLE11=Ernest Tubb - Don't Look Now (but Your Broken Heart Is Showin
TTITLE11=g)
TTITLE12=Jimmy Heap's Melody Masters - Dessau Waltz
TTITLE13=Billy Briggs' X.I.T. Boys - Down in New Orleans
TTITLE14=Billy Briggs' X.I.T. Boys - Pretty Baby Boogie
TTITLE15=Lone Star Playboys - Steel Guitar Bounce
TTITLE16=Cecil Campbell and the Tennessee Ramblers - Steel Guitar Hop
TTITLE17=Cecil Campbell and the Tennessee Ramblers - Campbell's Steel Gu
TTITLE17=itar Special
TTITLE18=Les Anderson - This Is Southland
TTITLE19=Les Anderson - And I Shook
TTITLE20=Tommy Sargent's Range Boys - Steel Guitar Boogie
TTITLE21=Merl Lindsay and His Oklahoma Nite Riders - Safety Pin Rag
TTITLE22=Merl Lindsay and His Oklahoma Nite Riders - Slidin' Steel
TTITLE23=Tiny Murphy and His Bar 69 Boys - Hot Steel
TTITLE24=Little Jimmy Dickens - I've Just Got to See You Once More
EXTD=Compiled and annotated by Adam Komorowski.\nProduced for release 
EXTD=by Joop Visser Productions.\nDigital remastering by Peter Rynston
EXTD=at Tall Order Mastering, Crowborough GB-ESX.\n4CD: Proper Proper
EXTD=Box 142 (2008-04-14), UPC 805520021425.
EXTT0=
EXTT1=
EXTT2=
EXTT3=
EXTT4=
EXTT5=
EXTT6=
EXTT7=
EXTT8=
EXTT9=
EXTT10=
EXTT11=
EXTT12=
EXTT13=
EXTT14=
EXTT15=
EXTT16=
EXTT17=
EXTT18=
EXTT19=
EXTT20=
EXTT21=
EXTT22=
EXTT23=
EXTT24=
PLAYORDER=
